<svg xmlns="http://www.w3.org/2000/svg" xmlns:xlink="http://www.w3.org/1999/xlink" width="500" zoomAndPan="magnify" viewBox="0 0 375 46.499999" height="62" preserveAspectRatio="xMidYMid meet" version="1.2"><defs><clipPath id="299e4a0c9c"><path d="M 174 10.132812 L 201 10.132812 L 201 36 L 174 36 Z M 174 10.132812 "/></clipPath></defs><g id="3d559afdb7"><path style="fill:none;stroke-width:2;stroke-linecap:butt;stroke-linejoin:miter;stroke:#7c2527;stroke-opacity:1;stroke-miterlimit:4;" d="M -0.000212554 0.997578 L 191.052617 0.997578 " transform="matrix(0.741839,0,0,0.741839,222.941564,23.146676)"/><path style="fill:none;stroke-width:2;stroke-linecap:butt;stroke-linejoin:miter;stroke:#7c2527;stroke-opacity:1;stroke-miterlimit:4;" d="M 0.00117394 0.997578 L 191.054004 0.997578 " transform="matrix(0.741839,0,0,0.741839,10.292098,23.146676)"/><g clip-rule="nonzero" clip-path="url(#299e4a0c9c)"><path style=" stroke:none;fill-rule:nonzero;fill:#7c2527;fill-opacity:1;" d="M 199.136719 23.492188 L 198.058594 23.492188 L 198.058594 34.566406 C 198.046875 34.714844 198.011719 34.859375 197.945312 34.996094 C 197.878906 35.132812 197.789062 35.25 197.675781 35.351562 C 197.5625 35.449219 197.4375 35.527344 197.292969 35.574219 C 197.152344 35.625 197.003906 35.648438 196.851562 35.640625 L 190.476562 35.640625 L 190.476562 28.089844 C 190.476562 27.875 190.398438 27.6875 190.246094 27.535156 C 190.089844 27.378906 189.90625 27.300781 189.6875 27.300781 L 185.058594 27.300781 C 184.839844 27.300781 184.65625 27.378906 184.5 27.53125 C 184.347656 27.6875 184.269531 27.875 184.269531 28.089844 L 184.269531 35.640625 L 177.890625 35.640625 C 177.742188 35.648438 177.59375 35.625 177.453125 35.578125 C 177.3125 35.527344 177.183594 35.453125 177.070312 35.351562 C 176.960938 35.25 176.871094 35.132812 176.804688 34.996094 C 176.738281 34.863281 176.703125 34.71875 176.691406 34.570312 L 176.691406 23.492188 L 175.609375 23.492188 C 174.40625 23.492188 173.753906 22.363281 174.542969 21.636719 L 186.410156 10.664062 C 186.558594 10.539062 186.726562 10.441406 186.910156 10.375 C 187.09375 10.304688 187.285156 10.273438 187.480469 10.273438 C 187.679688 10.273438 187.867188 10.308594 188.050781 10.375 C 188.234375 10.445312 188.402344 10.542969 188.550781 10.667969 C 192.4375 14.324219 196.324219 17.980469 200.210938 21.640625 C 200.984375 22.371094 200.335938 23.492188 199.136719 23.492188 Z M 199.136719 23.492188 "/></g></g></svg>