<svg xmlns="http://www.w3.org/2000/svg" xmlns:xlink="http://www.w3.org/1999/xlink" width="500" zoomAndPan="magnify" viewBox="0 0 375 374.999991" height="500" preserveAspectRatio="xMidYMid meet" version="1.2"><defs><clipPath id="8ec6254fbd"><path d="M 37.5 118.347656 L 256.5 118.347656 L 256.5 337.347656 L 37.5 337.347656 Z M 37.5 118.347656 "/></clipPath><clipPath id="9a7fa9830b"><path d="M 65.230469 118.347656 L 228.769531 118.347656 C 244.085938 118.347656 256.5 130.761719 256.5 146.078125 L 256.5 309.617188 C 256.5 324.933594 244.085938 337.347656 228.769531 337.347656 L 65.230469 337.347656 C 49.914062 337.347656 37.5 324.933594 37.5 309.617188 L 37.5 146.078125 C 37.5 130.761719 49.914062 118.347656 65.230469 118.347656 Z M 65.230469 118.347656 "/></clipPath></defs><g id="ea8fa9b785"><g clip-rule="nonzero" clip-path="url(#8ec6254fbd)"><g clip-rule="nonzero" clip-path="url(#9a7fa9830b)"><path style="fill:none;stroke-width:60;stroke-linecap:butt;stroke-linejoin:miter;stroke:#7c2527;stroke-opacity:1;stroke-miterlimit:4;" d="M 36.999683 0.000255139 L 255.203489 0.000255139 C 275.639574 0.000255139 292.203175 16.563856 292.203175 36.99994 L 292.203175 255.203747 C 292.203175 275.639832 275.639574 292.203433 255.203489 292.203433 L 36.999683 292.203433 C 16.563598 292.203433 -0.00000271856 275.639832 -0.00000271856 255.203747 L -0.00000271856 36.99994 C -0.00000271856 16.563856 16.563598 0.000255139 36.999683 0.000255139 Z M 36.999683 0.000255139 " transform="matrix(0.749479,0,0,0.749479,37.500002,118.347465)"/></g></g></g></svg>