<svg xmlns="http://www.w3.org/2000/svg" xmlns:xlink="http://www.w3.org/1999/xlink" width="500" zoomAndPan="magnify" viewBox="0 0 375 374.999991" height="500" preserveAspectRatio="xMidYMid meet" version="1.2"><defs><clipPath id="eac6e877bd"><path d="M 81 46 L 365 46 L 365 285 L 81 285 Z M 81 46 "/></clipPath><clipPath id="bfe3271b19"><path d="M 58.125 101.316406 L 364.359375 45.65625 L 399.765625 240.464844 L 93.535156 296.125 Z M 58.125 101.316406 "/></clipPath><clipPath id="65f7205f53"><path d="M 58.125 101.316406 L 364.359375 45.65625 L 399.765625 240.464844 L 93.535156 296.125 Z M 58.125 101.316406 "/></clipPath><clipPath id="591d6626a7"><path d="M 37.5 118.347656 L 256.5 118.347656 L 256.5 337.347656 L 37.5 337.347656 Z M 37.5 118.347656 "/></clipPath><clipPath id="d0ccf68cd1"><path d="M 65.230469 118.347656 L 228.769531 118.347656 C 244.085938 118.347656 256.5 130.761719 256.5 146.078125 L 256.5 309.617188 C 256.5 324.933594 244.085938 337.347656 228.769531 337.347656 L 65.230469 337.347656 C 49.914062 337.347656 37.5 324.933594 37.5 309.617188 L 37.5 146.078125 C 37.5 130.761719 49.914062 118.347656 65.230469 118.347656 Z M 65.230469 118.347656 "/></clipPath></defs><g id="b9c0494011"><g clip-rule="nonzero" clip-path="url(#eac6e877bd)"><g clip-rule="nonzero" clip-path="url(#bfe3271b19)"><g clip-rule="nonzero" clip-path="url(#65f7205f53)"><path style=" stroke:none;fill-rule:nonzero;fill:#7c2527;fill-opacity:1;" d="M 361.550781 46.210938 C 360.625 46.339844 359.707031 46.515625 358.796875 46.742188 C 358.261719 46.871094 357.691406 47.015625 357.082031 47.179688 C 356.476562 47.347656 355.839844 47.546875 355.164062 47.753906 C 353.816406 48.175781 352.332031 48.671875 350.707031 49.242188 C 349.085938 49.8125 347.355469 50.492188 345.488281 51.222656 C 344.554688 51.589844 343.585938 51.96875 342.601562 52.378906 L 339.550781 53.675781 L 336.332031 55.078125 C 335.226562 55.5625 334.113281 56.089844 332.964844 56.617188 C 323.769531 60.863281 312.992188 66.425781 301.308594 73.316406 C 288.523438 80.863281 276.160156 89.042969 264.207031 97.851562 C 262.617188 99.046875 261.015625 100.25 259.40625 101.460938 C 257.796875 102.679688 256.164062 103.886719 254.570312 105.160156 L 249.738281 108.976562 L 248.523438 109.941406 C 248.113281 110.261719 247.710938 110.582031 247.3125 110.917969 L 244.90625 112.910156 L 240.070312 116.921875 C 239.25 117.585938 238.472656 118.292969 237.671875 118.980469 L 235.277344 121.0625 L 230.472656 125.261719 C 229.65625 125.957031 228.886719 126.6875 228.09375 127.410156 L 225.730469 129.585938 C 212.960938 141.304688 200.855469 153.671875 189.410156 166.6875 C 177.972656 179.636719 167.46875 193.09375 158.046875 206.320312 L 156.28125 208.792969 C 155.699219 209.613281 155.136719 210.449219 154.566406 211.273438 L 151.183594 216.1875 C 150.621094 217 150.089844 217.828125 149.542969 218.644531 L 147.929688 221.089844 L 147.527344 221.699219 L 147.425781 221.847656 L 147.375 221.925781 C 147.355469 221.960938 147.347656 221.964844 147.351562 221.960938 L 147.320312 221.976562 C 147.300781 221.988281 147.289062 222 147.273438 222.015625 C 147.257812 222.035156 147.238281 222.054688 147.214844 222.074219 L 146.964844 222.3125 C 146.320312 222.929688 145.851562 223.320312 145.5 223.535156 L 145.488281 223.535156 C 145.488281 223.535156 145.476562 223.523438 145.472656 223.515625 L 145.4375 223.464844 L 145.371094 223.359375 L 145.242188 223.160156 C 145.164062 223.035156 145.09375 222.914062 145.011719 222.792969 C 144.867188 222.558594 144.75 222.34375 144.648438 222.152344 C 144.546875 221.960938 144.464844 221.792969 144.394531 221.640625 C 144.363281 221.5625 144.332031 221.492188 144.304688 221.425781 L 144.269531 221.328125 C 144.269531 221.308594 144.265625 221.296875 144.253906 221.277344 L 143.699219 220.722656 L 128.167969 205.234375 C 119.40625 196.511719 114.015625 191.183594 113.304688 190.511719 C 108.046875 185.550781 97.308594 188.402344 89.3125 196.871094 C 81.320312 205.339844 79.097656 216.230469 84.355469 221.1875 C 85.066406 221.859375 90.699219 226.9375 99.921875 235.1875 L 116.28125 249.789062 L 134.578125 266.519531 L 144.558594 275.636719 L 149.664062 280.304688 L 152.246094 282.660156 L 154.191406 284.441406 C 154.300781 284.535156 154.410156 284.644531 154.515625 284.730469 L 154.832031 284.984375 L 164.386719 266.984375 L 166.832031 262.378906 C 167.652344 260.84375 168.460938 259.273438 169.304688 257.769531 L 174.355469 248.617188 C 175.207031 247.085938 176.039062 245.53125 176.914062 244.027344 C 177.136719 243.644531 177.335938 243.269531 177.574219 242.886719 C 177.808594 242.503906 178.035156 242.121094 178.261719 241.734375 L 178.789062 240.816406 L 179.125 240.230469 L 180.46875 237.863281 C 180.921875 237.074219 181.363281 236.269531 181.835938 235.484375 L 184.667969 230.707031 C 185.148438 229.902344 185.613281 229.09375 186.109375 228.292969 L 187.59375 225.886719 C 195.507812 212.996094 204.378906 199.75 214.136719 186.816406 C 223.871094 173.871094 234.394531 161.167969 245.335938 149.183594 L 247.382812 146.929688 C 248.0625 146.179688 248.734375 145.421875 249.4375 144.703125 L 253.609375 140.332031 L 255.683594 138.152344 C 256.378906 137.429688 257.050781 136.6875 257.765625 135.996094 L 261.972656 131.769531 L 264.0625 129.664062 C 264.40625 129.3125 264.761719 128.96875 265.117188 128.628906 L 266.175781 127.601562 L 270.390625 123.527344 C 271.777344 122.160156 273.203125 120.859375 274.609375 119.546875 L 278.808594 115.636719 C 290.015625 105.371094 301.089844 96.136719 311.359375 88.027344 C 321.628906 79.917969 331.113281 72.945312 339.121094 67.15625 C 340.121094 66.4375 341.089844 65.710938 342.046875 65.03125 L 344.839844 63.03125 L 347.46875 61.125 L 349.945312 59.34375 C 351.542969 58.195312 353.007812 57.09375 354.367188 56.089844 C 355.722656 55.085938 356.960938 54.15625 358.058594 53.289062 C 358.605469 52.859375 359.121094 52.4375 359.601562 52.046875 C 360.085938 51.652344 360.535156 51.285156 360.949219 50.929688 C 361.65625 50.328125 362.332031 49.695312 362.976562 49.023438 C 364.027344 47.90625 364.472656 47.089844 364.238281 46.613281 C 364 46.140625 363.082031 46.015625 361.550781 46.210938 Z M 361.550781 46.210938 "/></g></g></g><g clip-rule="nonzero" clip-path="url(#591d6626a7)"><g clip-rule="nonzero" clip-path="url(#d0ccf68cd1)"><path style="fill:none;stroke-width:60;stroke-linecap:butt;stroke-linejoin:miter;stroke:#7c2527;stroke-opacity:1;stroke-miterlimit:4;" d="M 36.999683 0.000255139 L 255.203489 0.000255139 C 275.639574 0.000255139 292.203175 16.563856 292.203175 36.99994 L 292.203175 255.203747 C 292.203175 275.639832 275.639574 292.203433 255.203489 292.203433 L 36.999683 292.203433 C 16.563598 292.203433 -0.00000271856 275.639832 -0.00000271856 255.203747 L -0.00000271856 36.99994 C -0.00000271856 16.563856 16.563598 0.000255139 36.999683 0.000255139 Z M 36.999683 0.000255139 " transform="matrix(0.749479,0,0,0.749479,37.500002,118.347465)"/></g></g></g></svg>